<svg xmlns="http://www.w3.org/2000/svg" x="0px" y="0px" viewBox="0 0 864 864" enable-background="new 0 0 864 864"><style>.ls0{fill:#fff}.fs0{fill:#cc6d00}</style><g class="fs0"><path d="M647.6,647.6C590,705.1,513.4,736.8,432,736.8s-158-31.7-215.6-89.3C158.9,590,127.2,513.4,127.2,432s31.7-158,89.3-215.6	s134.1-89.3,215.6-89.3s158,31.7,215.6,89.3C705.3,274,737,350.5,737,432S705.1,590,647.6,647.6z"/></g><g transform="translate(5.3824120603 5.2324120603) scale(.98777)"><path class="ls0" d="M420.5,134.8v594.3c-18.5-0.7-36.5-3.1-54-7v-73l-56.9-115l-99.8-201.9c-13.9,31-21.3,64.8-21.3,99.8	c0,57.6,19.9,112.2,56.5,155.9l-41.5,34.6c-43.1-51.6-69-118-69-190.5c0-58.5,16.9-113,46-159c8.8-13.8,18.6-26.9,29.5-39l9.2-4.6	l24.1,48.7l108.9,220.3l14.2,28.8V141.9C384,137.9,402,135.5,420.5,134.8z"/><path class="ls0" d="M728,460.6c-1.8,18.8-5.3,37-10.4,54.5c-30,103.2-114.4,183.2-220.1,207c-17.5,3.9-35.5,6.3-54,7V593h54v73.5	c39.9-11.1,76.5-32.3,106.6-62.4c31.3-31.3,53-69.6,63.7-111.4l-170.3-77.1l-22.9-10.3l-31.1-14.1V134.8c18.5,0.7,36.5,3.1,54,7	C575.9,159.5,642.5,208,684,274l-45.7,28.7c-9.6-15.3-21.1-29.6-34.2-42.8c-30.1-30.1-66.7-51.3-106.6-62.4v158.8l32.1,14.5	l145.8,66L728,460.6z"/></g></svg>